<mxfile host="app.diagrams.net" agent="Mozilla/5.0 (Windows NT 10.0; Win64; x64) AppleWebKit/537.36 (KHTML, like Gecko) Chrome/131.0.0.0 Safari/537.36" version="24.9.0">
  <diagram name="Page-1" id="mBedW4wAC-FoqO0z0ZDx">
    <mxGraphModel dx="2443" dy="827" grid="1" gridSize="10" guides="1" tooltips="1" connect="1" arrows="1" fold="1" page="1" pageScale="1" pageWidth="850" pageHeight="1100" math="0" shadow="0">
      <root>
        <mxCell id="0" />
        <mxCell id="1" parent="0" />
        <mxCell id="w4pggSOydJMUPkA31_QN-1" value="" style="group" vertex="1" connectable="0" parent="1">
          <mxGeometry x="321" y="393" width="340" height="60" as="geometry" />
        </mxCell>
        <mxCell id="w4pggSOydJMUPkA31_QN-2" value="" style="rounded=0;whiteSpace=wrap;html=1;" vertex="1" parent="w4pggSOydJMUPkA31_QN-1">
          <mxGeometry width="340" height="60" as="geometry" />
        </mxCell>
        <mxCell id="w4pggSOydJMUPkA31_QN-3" value="&lt;font style=&quot;font-size: 18px;&quot;&gt;busycaesar/content_driven_llm_apis&lt;/font&gt;" style="text;html=1;align=center;verticalAlign=middle;whiteSpace=wrap;rounded=0;" vertex="1" parent="w4pggSOydJMUPkA31_QN-1">
          <mxGeometry x="85" y="15" width="170" height="30" as="geometry" />
        </mxCell>
        <mxCell id="w4pggSOydJMUPkA31_QN-4" value="" style="group" vertex="1" connectable="0" parent="1">
          <mxGeometry x="321" y="298" width="340" height="60" as="geometry" />
        </mxCell>
        <mxCell id="w4pggSOydJMUPkA31_QN-5" value="" style="rounded=0;whiteSpace=wrap;html=1;" vertex="1" parent="w4pggSOydJMUPkA31_QN-4">
          <mxGeometry width="340" height="60" as="geometry" />
        </mxCell>
        <mxCell id="w4pggSOydJMUPkA31_QN-6" value="&lt;font style=&quot;font-size: 18px;&quot;&gt;pgvector/pgvector:pg16&lt;/font&gt;" style="text;html=1;align=center;verticalAlign=middle;whiteSpace=wrap;rounded=0;" vertex="1" parent="w4pggSOydJMUPkA31_QN-4">
          <mxGeometry x="85" y="15" width="170" height="30" as="geometry" />
        </mxCell>
        <mxCell id="w4pggSOydJMUPkA31_QN-7" value="&lt;font style=&quot;font-size: 18px;&quot;&gt;.env&lt;/font&gt;" style="swimlane;whiteSpace=wrap;html=1;" vertex="1" parent="1">
          <mxGeometry x="-90" y="281" width="300" height="190" as="geometry" />
        </mxCell>
        <mxCell id="w4pggSOydJMUPkA31_QN-8" value="&lt;ul style=&quot;margin-top: 5px;&quot;&gt;&lt;li&gt;&lt;font style=&quot;font-size: 16px;&quot;&gt;PORT&lt;/font&gt;&lt;/li&gt;&lt;li&gt;&lt;font style=&quot;&quot;&gt;&lt;span style=&quot;font-size: 16px;&quot;&gt;POSTGRES_USER&lt;/span&gt;&lt;/font&gt;&lt;/li&gt;&lt;li&gt;&lt;font style=&quot;&quot;&gt;&lt;span style=&quot;font-size: 16px;&quot;&gt;POSTGRES_PASSWORD&lt;/span&gt;&lt;/font&gt;&lt;/li&gt;&lt;li&gt;&lt;font style=&quot;&quot;&gt;&lt;span style=&quot;font-size: 16px;&quot;&gt;POSTGRES_DB&lt;/span&gt;&lt;/font&gt;&lt;/li&gt;&lt;li&gt;&lt;font style=&quot;&quot;&gt;&lt;span style=&quot;font-size: 16px;&quot;&gt;POSTGRES_COLLECTION&lt;/span&gt;&lt;/font&gt;&lt;/li&gt;&lt;li&gt;&lt;font style=&quot;&quot;&gt;&lt;span style=&quot;font-size: 16px;&quot;&gt;GEMINI_API_KEY&lt;/span&gt;&lt;/font&gt;&lt;/li&gt;&lt;/ul&gt;" style="text;html=1;align=left;verticalAlign=top;whiteSpace=wrap;rounded=0;" vertex="1" parent="w4pggSOydJMUPkA31_QN-7">
          <mxGeometry x="15" y="40" width="270" height="130" as="geometry" />
        </mxCell>
        <mxCell id="w4pggSOydJMUPkA31_QN-10" value="&lt;font style=&quot;font-size: 18px;&quot;&gt;environment variable&lt;/font&gt;" style="swimlane;whiteSpace=wrap;html=1;" vertex="1" parent="1">
          <mxGeometry x="780" y="378" width="300" height="90" as="geometry" />
        </mxCell>
        <mxCell id="w4pggSOydJMUPkA31_QN-11" value="&lt;ul style=&quot;margin-top: 5px;&quot;&gt;&lt;li&gt;&lt;font style=&quot;font-size: 16px;&quot;&gt;POSTGRES_URL&lt;/font&gt;&lt;/li&gt;&lt;/ul&gt;" style="text;html=1;align=left;verticalAlign=top;whiteSpace=wrap;rounded=0;" vertex="1" parent="w4pggSOydJMUPkA31_QN-10">
          <mxGeometry x="15" y="33" width="270" height="40" as="geometry" />
        </mxCell>
        <mxCell id="w4pggSOydJMUPkA31_QN-13" value="" style="endArrow=classic;html=1;rounded=0;exitX=1;exitY=0.25;exitDx=0;exitDy=0;entryX=0;entryY=0.5;entryDx=0;entryDy=0;" edge="1" parent="1" source="w4pggSOydJMUPkA31_QN-7" target="w4pggSOydJMUPkA31_QN-5">
          <mxGeometry width="50" height="50" relative="1" as="geometry">
            <mxPoint x="280" y="540" as="sourcePoint" />
            <mxPoint x="330" y="490" as="targetPoint" />
          </mxGeometry>
        </mxCell>
        <mxCell id="w4pggSOydJMUPkA31_QN-14" value="" style="endArrow=classic;html=1;rounded=0;exitX=1;exitY=0.75;exitDx=0;exitDy=0;entryX=0;entryY=0.5;entryDx=0;entryDy=0;" edge="1" parent="1" source="w4pggSOydJMUPkA31_QN-7" target="w4pggSOydJMUPkA31_QN-2">
          <mxGeometry width="50" height="50" relative="1" as="geometry">
            <mxPoint x="300" y="580" as="sourcePoint" />
            <mxPoint x="350" y="530" as="targetPoint" />
          </mxGeometry>
        </mxCell>
        <mxCell id="w4pggSOydJMUPkA31_QN-15" value="" style="endArrow=classic;html=1;rounded=0;entryX=1;entryY=0.5;entryDx=0;entryDy=0;exitX=0;exitY=0.5;exitDx=0;exitDy=0;" edge="1" parent="1" source="w4pggSOydJMUPkA31_QN-10" target="w4pggSOydJMUPkA31_QN-2">
          <mxGeometry width="50" height="50" relative="1" as="geometry">
            <mxPoint x="570" y="550" as="sourcePoint" />
            <mxPoint x="620" y="500" as="targetPoint" />
          </mxGeometry>
        </mxCell>
        <mxCell id="w4pggSOydJMUPkA31_QN-16" value="&lt;font style=&quot;font-size: 18px;&quot;&gt;docker-compose.yml&lt;/font&gt;" style="swimlane;whiteSpace=wrap;html=1;" vertex="1" parent="1">
          <mxGeometry x="281" y="241" width="420" height="270" as="geometry" />
        </mxCell>
      </root>
    </mxGraphModel>
  </diagram>
</mxfile>
